<svg xmlns="http://www.w3.org/2000/svg" viewBox="0 0 24 24" role="img" aria-label="WhatsApp logo">
  <circle cx="12" cy="12" r="12" fill="#25D366"/>
  <path fill="#FFFFFF" d="M17.472 14.382c-.297-.149-1.758-.867-2.03-.967-.273-.099-.471-.148-.67.15-.198.297-.767.966-.94 1.164-.173.198-.347.223-.644.075-.297-.149-1.255-.463-2.39-1.475-.883-.787-1.48-1.76-1.653-2.059-.173-.297-.018-.458.13-.606.134-.133.298-.347.446-.52.149-.174.198-.298.298-.497.099-.198.05-.372-.025-.52-.075-.149-.669-1.612-.916-2.206-.242-.579-.487-.5-.669-.51-.173-.008-.372-.01-.57-.01-.198 0-.52.075-.792.372-.273.298-1.04 1.016-1.04 2.479s1.065 2.875 1.213 3.074c.149.198 2.096 3.2 5.077 4.487.71.307 1.263.49 1.695.627.712.226 1.36.194 1.872.118.571-.085 1.758-.719 2.006-1.413.248-.694.248-1.289.173-1.413-.074-.124-.272-.198-.57-.347z"/>
</svg>
